HIERARCHY
ROOT Hips
{
	OFFSET 0.00000 0.00000 0.00000
	CHANNELS 6 Xposition Yposition Zposition Zrotation Yrotation Xrotation 
	JOINT LHipJoint
	{
		OFFSET 0 0 0
		CHANNELS 3 Zrotation Yrotation Xrotation
		JOINT LeftHip
		{
			OFFSET 1.58161 -1.81893 0.78828
			CHANNELS 3 Zrotation Yrotation Xrotation
			JOINT LeftKnee
			{
				OFFSET 2.53374 -6.96141 0.00000
				CHANNELS 3 Zrotation Yrotation Xrotation
				JOINT LeftAnkle
				{
					OFFSET 2.63509 -7.23986 0.00000
					CHANNELS 3 Zrotation Yrotation Xrotation
					JOINT LeftToe
					{
						OFFSET 0.14115 -0.38781 2.05350
						CHANNELS 3 Zrotation Yrotation Xrotation
						End Site
						{
							OFFSET 0.00000 -0.00000 1.05543
						}
					}
				}
			}
		}
	}
	JOINT RHipJoint
	{
		OFFSET 0 0 0
		CHANNELS 3 Zrotation Yrotation Xrotation
		JOINT RightHip
		{
			OFFSET -1.11138 -1.81893 0.78828
			CHANNELS 3 Zrotation Yrotation Xrotation
			JOINT RightKnee
			{
				OFFSET -2.58392 -7.09926 0.00000
				CHANNELS 3 Zrotation Yrotation Xrotation
				JOINT RightAnkle
				{
					OFFSET -2.66423 -7.31992 0.00000
					CHANNELS 3 Zrotation Yrotation Xrotation
					JOINT RightToe
					{
						OFFSET -0.18831 -0.51739 2.12114
						CHANNELS 3 Zrotation Yrotation Xrotation
						End Site
						{
							OFFSET -0.00000 -0.00000 1.09845
						}
					}
				}
			}
		}
	}
	JOINT lowerback
	{
		OFFSET 0 0 0
		CHANNELS 3 Zrotation Yrotation Xrotation
		JOINT Chest
		{
			OFFSET -0.01511 1.97958 -0.08829
			CHANNELS 3 Zrotation Yrotation Xrotation
			JOINT Chest2
			{
				OFFSET 0.08344 1.97334 -0.04330
				CHANNELS 3 Zrotation Yrotation Xrotation
				JOINT lowerneck
				{
					OFFSET 0 0 0
					CHANNELS 3 Zrotation Yrotation Xrotation
					JOINT Neck
					{
						OFFSET 0.00559 1.76246 0.31246
						CHANNELS 3 Zrotation Yrotation Xrotation
						JOINT Head
						{
							OFFSET -0.07011 1.80354 -0.30524
							CHANNELS 3 Zrotation Yrotation Xrotation
							End Site
							{
								OFFSET -0.02385 1.83547 -0.13906
							}
						}
					}
				}
				JOINT LeftCollar
				{
					OFFSET 0 0 0
					CHANNELS 3 Zrotation Yrotation Xrotation
					JOINT LeftShoulder
					{
						OFFSET 3.20667 1.30156 -0.60240
CHANNELS 3 Zrotation Xrotation Yrotation
						JOINT LeftElbow
						{
OFFSET 0 -4.956630 0.000000
CHANNELS 3 Zrotation Xrotation Yrotation
							JOINT LeftWrist
							{
OFFSET 0 -3.381770 0.000000
CHANNELS 3 Zrotation Xrotation Yrotation
								JOINT lhand
								{
									OFFSET 0 0 0
CHANNELS 3 Zrotation Xrotation Yrotation
									JOINT LFingers
									{
OFFSET 0 -0.662910 0.000000
CHANNELS 3 Zrotation Xrotation Yrotation
										End Site
										{
OFFSET 0 -0.534450 0.000000
										}
									}
								}
								JOINT LThumb
								{
OFFSET 0 0.000000 0.000000
CHANNELS 3 Zrotation Xrotation Yrotation
									End Site
									{
OFFSET 0 -0.542610 0.542610
									}
								}
							}
						}
					}
				}
				JOINT RightCollar
				{
					OFFSET 0 0 0
					CHANNELS 3 Zrotation Yrotation Xrotation
					JOINT RightShoulder
					{
						OFFSET -3.06877 1.34672 -0.60964
CHANNELS 3 Zrotation Xrotation Yrotation
						JOINT RightElbow
						{
OFFSET 0 -5.083650 0.000000
CHANNELS 3 Zrotation Xrotation Yrotation
							JOINT RightWrist
							{
OFFSET 0 -3.359840 0.000000
CHANNELS 3 Zrotation Xrotation Yrotation
								JOINT rhand
								{
									OFFSET 0 0 0
CHANNELS 3 Zrotation Xrotation Yrotation
									JOINT RFingers
									{
OFFSET 0 -0.820760 0.000000
CHANNELS 3 Zrotation Xrotation Yrotation
										End Site
										{
OFFSET 0 -0.661720 0.000000
										}
									}
								}
								JOINT RThumb
								{
OFFSET 0 0.000000 0.000000
CHANNELS 3 Zrotation Xrotation Yrotation
									End Site
									{
OFFSET 0 -0.671820 0.671820
									}
								}
							}
						}
					}
				}
			}
		}
	}
}
MOTION
Frames: 5
Frame Time: .0083333
-10.3994 17.9015 5.6928 -61.8482 85.2319 -46.5491 0.0000 0.0000 0.0000 -7.2231 -4.5498 -30.1385 2.5373 9.9054 28.6709 0.3323 -4.7264 -10.2911 0.6604 -5.1976 -14.4730 0.0000 0.0000 0.0000 15.1953 8.4482 -31.0671 -2.5208 -9.8757 28.5750 -0.2404 0.8099 -9.0105 -0.0054 -0.4740 1.3024 -1.0453 1.1593 4.0239 4.2977 1.6261 5.7631 5.0385 0.7611 3.5504 1.8313 -1.5585 -13.4247 -3.7798 1.0308 42.1912 -1.7010 0.8443 17.9876 0.0000 0.0000 0.0000 -11.0812 -21.6596 -72.8159 20.2104 -30.895 5.639 9.3701 -42.3578 -55.1906 0.0 0.0 0.0 -7.1250 0.0 0.0 -76.0291 75.2342 60.7826 0.0000 0.0000 0.0000 6.2571 -20.1634 60.6566 -19.8871 -30.5061 -5.4739 -28.568 -35.711 8.7001 0.0 0.0 0.0 7.1250 0.0 -0.0 -1.4631 39.8595 -0.1854
-10.3973 17.9006 5.6924 -61.9282 85.2258 -46.6142 0.0000 0.0000 0.0000 -7.1101 -4.7341 -30.0363 2.5430 9.9156 28.7039 0.3332 -4.8341 -10.3132 0.5391 -4.7043 -13.0671 0.0000 0.0000 0.0000 15.2132 8.4120 -31.1166 -2.5286 -9.8898 28.6205 -0.2405 0.8208 -9.0090 -0.0022 -0.3031 0.8327 -1.0975 1.1636 4.0038 4.3144 1.6307 5.7696 5.0865 0.7608 3.5667 1.8114 -1.5555 -13.3859 -3.7420 1.0232 42.1642 -1.6801 0.8426 17.9602 -0.0000 -0.0000 0.0000 -11.1392 -21.6702 -72.7203 20.1910 -30.8718 5.629 9.1296 -42.4668 -55.0837 0.0 0.0 0.0 -7.1250 0.0 0.0 -75.6854 75.1284 60.3333 -0.0000 -0.0000 0.0000 6.1834 -20.1804 60.7785 -19.8969 -30.5179 -5.4789 -28.6117 -35.8796 8.646 0.0 0.0 0.0 7.1250 0.0 -0.0 -1.5041 39.802 -0.1928
-10.3946 17.8984 5.6927 -61.6380 85.2309 -46.3132 0.0000 0.0000 0.0000 -7.1324 -4.7498 -29.9808 2.5448 9.9190 28.7147 0.3382 -4.8196 -10.3870 0.5424 -4.7187 -13.1079 0.0000 0.0000 0.0000 15.1874 8.4075 -31.1403 -2.5301 -9.8924 28.6291 -0.2431 0.8548 -9.0495 -0.0039 -0.4011 1.1021 -1.1739 1.1817 3.9749 4.3273 1.6530 5.7707 5.1441 0.7683 3.5800 1.8071 -1.5528 -13.3980 -3.7612 1.0516 42.2320 -1.6843 0.8539 18.0059 -0.0000 -0.0000 0.0000 -11.2069 -21.6575 -72.7102 20.1884 -30.8687 5.6277 9.2922 -42.2801 -55.0967 0.0 0.0 0.0 -7.1250 0.0 0.0 -75.6932 75.1904 60.4109 -0.0000 -0.0000 0.0000 6.1099 -20.1852 60.8245 -19.9169 -30.5421 -5.4891 -28.5546 -36.0593 8.6408 0.0 0.0 0.0 7.1250 0.0 -0.0 -1.4543 39.7912 -0.1868
-10.3933 17.8996 5.6922 -61.8205 85.2152 -46.4943 0.0000 0.0000 0.0000 -7.0611 -4.8819 -29.9877 2.5477 9.9241 28.7312 0.3370 -4.7851 -10.3663 0.5022 -4.5428 -12.6091 0.0000 0.0000 0.0000 15.1943 8.4626 -31.1232 -2.5325 -9.8967 28.6429 -0.2481 0.8079 -9.1563 -0.0066 -0.5255 1.4439 -1.1424 1.1879 4.0025 4.3107 1.6621 5.7571 5.1073 0.7749 3.5504 1.8719 -1.5502 -13.4189 -3.8077 1.0669 42.3003 -1.7165 0.8670 18.0537 0.0000 0.0000 0.0000 -11.1926 -21.6342 -72.6985 20.1852 -30.8648 5.626 9.4883 -42.0989 -55.2299 0.0 0.0 0.0 -7.1250 0.0 0.0 -76.1502 75.2838 60.955 0.0000 0.0000 0.0000 6.1037 -20.1511 60.8421 -19.9623 -30.5969 -5.5121 -28.5403 -36.1983 8.6848 0.0 0.0 0.0 7.1250 0.0 -0.0 -1.4396 39.8397 -0.1832
-10.3921 17.8980 5.6943 -61.2264 85.0374 -45.9127 0.0000 0.0000 0.0000 -7.0205 -4.6173 -30.1183 2.5482 9.9250 28.7340 0.3356 -4.6426 -10.3327 0.6016 -4.9650 -13.8088 0.0000 0.0000 0.0000 15.3136 8.6319 -31.0643 -2.5337 -9.8989 28.6501 -0.2496 0.7907 -9.1890 -0.0088 -0.6069 1.6678 -1.0469 1.2725 4.0476 4.2948 1.7771 5.7470 5.0328 0.8374 3.5058 1.9411 -1.5784 -13.3735 -3.8052 1.0063 42.3126 -1.7385 0.8563 18.0452 0.0000 0.0000 0.0000 -11.1095 -21.5905 -72.8 20.1990 -30.8813 5.6331 9.2959 -42.3126 -55.2375 0.0 0.0 0.0 -7.1250 0.0 0.0 -76.2246 75.2142 60.9478 0.0000 0.0000 0.0000 6.2134 -20.1366 60.6409 -19.9277 -30.5551 -5.4945 -28.6003 -36.1937 8.5731 0.0 0.0 0.0 7.1250 0.0 -0.0 -1.4976 39.7186 -0.195
